<svg width="29" height="29" viewBox="0 0 29 29" fill="none" xmlns="http://www.w3.org/2000/svg">
<path d="M11.854 21.854C6.34 21.854 1.854 17.368 1.854 11.854C1.854 6.34 6.34 1.854 11.854 1.854C17.368 1.854 21.854 6.34 21.854 11.854C21.854 17.368 17.368 21.854 11.854 21.854ZM11.854 3.854C7.443 3.854 3.854 7.443 3.854 11.854C3.854 16.265 7.443 19.854 11.854 19.854C16.265 19.854 19.854 16.265 19.854 11.854C19.854 7.443 16.266 3.854 11.854 3.854Z" fill="black"/>
<path d="M26.146 27.146C26.0147 27.1461 25.8846 27.1203 25.7633 27.07C25.6419 27.0198 25.5317 26.946 25.439 26.853L17.745 19.159C17.6522 19.0662 17.5785 18.9559 17.5283 18.8346C17.478 18.7133 17.4521 18.5833 17.4521 18.452C17.4521 18.3207 17.478 18.1907 17.5283 18.0694C17.5785 17.9481 17.6522 17.8378 17.745 17.745C17.8378 17.6522 17.9481 17.5785 18.0694 17.5283C18.1907 17.478 18.3207 17.4521 18.452 17.4521C18.5833 17.4521 18.7133 17.478 18.8346 17.5283C18.9559 17.5785 19.0662 17.6522 19.159 17.745L26.853 25.439C26.9933 25.5787 27.0889 25.7569 27.1278 25.951C27.1666 26.1451 27.1469 26.3464 27.0712 26.5293C26.9954 26.7122 26.867 26.8684 26.7023 26.9782C26.5376 27.088 26.344 27.1464 26.146 27.146Z" fill="black"/>
</svg>
